<svg xmlns="http://www.w3.org/2000/svg" id="type" viewBox="0 0 204 204"><defs><style>.cls-1{fill:#fff;}.cls-2{fill:#91b5c7;}</style></defs><title>DigitalRGB_Platinum_204px</title><circle class="cls-1" cx="102" cy="102" r="102"></circle><path class="cls-2" d="M108.57,125.77,100,160.4a.89.89,0,0,1-1,.52.87.87,0,0,1-.67-.94l-1.93-35.56-18,11a.87.87,0,0,1-1.08-.28.9.9,0,0,1,0-1.11l8.78-13.72-42.43,4.45a.88.88,0,0,1-1-.68.89.89,0,0,1,.57-1L75.48,109.8l-30.27-5a.88.88,0,0,1-.68-1,.86.86,0,0,1,.93-.75l39.62-2.39L64.79,61.39A.89.89,0,0,1,65,60.23a.88.88,0,0,1,1.18.11L98.43,91.73l8.42-53.87a.89.89,0,0,1,.93-.76.87.87,0,0,1,.83.86l1.81,54.15,11.1-11.82a.9.9,0,0,1,1.07-.18.88.88,0,0,1,.45,1l-.24,12.63,32.85-15a.86.86,0,0,1,1.12.32.89.89,0,0,1-.18,1.16l-33.2,26.57,23.23,12.75a.88.88,0,0,1-.53,1.66l-24.07-.6,24.91,37a70.26,70.26,0,1,0-5,3.76Z" transform="translate(0 0)"></path><path d="M80,192.36l.23-1.16,5.57-4.58a2.56,2.56,0,0,0,.92-1.46A1.66,1.66,0,0,0,85.27,183,1.8,1.8,0,0,0,83,184.63l-1.4-.28a3.12,3.12,0,0,1,3.9-2.55,3.25,3.25,0,0,1,2.43,1.82,2.94,2.94,0,0,1,.16,1.81,3.7,3.7,0,0,1-1.41,2.15L82,191.45l4.84,1-.26,1.26Z" transform="translate(0 0)"></path><path d="M97.19,194.07a3.27,3.27,0,0,1-2.49.77,3.3,3.3,0,0,1-2.35-1.14c-1-1.23-1.11-2.81-.95-5s.48-3.72,1.69-4.78a3.61,3.61,0,0,1,4.84.37c1,1.23,1.12,2.82.95,5S98.4,193,97.19,194.07Zm-.35-9a2.11,2.11,0,0,0-2.78-.21c-1,.83-1.11,2.46-1.22,4s-.28,3.14.6,4.12a2,2,0,0,0,1.35.62,2,2,0,0,0,1.43-.41c1-.83,1.11-2.46,1.22-4S97.72,186.05,96.84,185.08Z" transform="translate(0 0)"></path><path d="M103.21,195l-.06-1.17,4.27-5.81a2.52,2.52,0,0,0,.53-1.65,1.66,1.66,0,0,0-1.92-1.72,1.81,1.81,0,0,0-1.81,2.13l-1.42.07a3.11,3.11,0,0,1,3.15-3.43,3.25,3.25,0,0,1,2.81,1.16,2.84,2.84,0,0,1,.59,1.71,3.7,3.7,0,0,1-.83,2.43l-3.58,4.91,4.93-.24.06,1.29Z" transform="translate(0 0)"></path><path d="M119.85,192.47a3.25,3.25,0,0,1-2.23,1.35,3.3,3.3,0,0,1-2.54-.53c-1.31-.94-1.77-2.46-2.13-4.59s-.44-3.72.49-5a3.18,3.18,0,0,1,2.22-1.33,3.24,3.24,0,0,1,2.55.51c1.31.94,1.76,2.47,2.13,4.6S120.77,191.15,119.85,192.47Zm-2.52-8.63a2,2,0,0,0-1.45-.27,1.89,1.89,0,0,0-1.28.74c-.79,1.05-.49,2.65-.23,4.15s.49,3.11,1.58,3.84a1.93,1.93,0,0,0,1.46.27,1.89,1.89,0,0,0,1.28-.74c.79-1.05.48-2.65.23-4.15S118.42,184.57,117.33,183.84Z" transform="translate(0 0)"></path><path d="M46.07,161l-.72,1.2a3.74,3.74,0,0,1,3.4.85A4.36,4.36,0,0,1,50.3,166c.13,1.62-.67,3-2,4.57-1.2,1.38-2.5,2.49-4.23,2.58A4.39,4.39,0,0,1,40.91,172a4.51,4.51,0,0,1-1.62-3.13,3.44,3.44,0,0,1,.73-2.33l1.13,1a2.23,2.23,0,0,0-.44,1.29,2.84,2.84,0,0,0,1.1,2.16,2.93,2.93,0,0,0,2.14.72c1.35-.12,2.42-1.25,3.21-2.15s1.78-2.16,1.7-3.52a2.78,2.78,0,0,0-1-2,2.93,2.93,0,0,0-2.09-.78,4.06,4.06,0,0,0-2.66,1.55l2.32,2-.89,1L41.24,165l4.07-4.65Z" transform="translate(0 0)"></path><path d="M40.09,154.31c1.66,2,1.52,4.19-.67,6L33.88,165l-.93-1.1,5.57-4.71c1.39-1.18,1.83-2.54.54-4.06s-2.7-1.31-4.09-.13l-5.56,4.71-.93-1.1L34,154C36.2,152.11,38.43,152.34,40.09,154.31Z" transform="translate(0 0)"></path><path d="M34.76,147.64,25.22,154l-.82-1.23L34,146.41Z" transform="translate(0 0)"></path><path d="M27.22,136.83a4.3,4.3,0,0,1,2.4,2.15l1.83,3.55-10.19,5.26-1.83-3.55a4.27,4.27,0,0,1-.35-3.21,6,6,0,0,1,3.38-3.4A6.09,6.09,0,0,1,27.22,136.83Zm-6.84,4.63a2.79,2.79,0,0,0,.23,2.17l1.17,2.28,7.84-4-1.18-2.27a2.89,2.89,0,0,0-1.64-1.45,5.08,5.08,0,0,0-3.67.79A5,5,0,0,0,20.38,141.46Z" transform="translate(0 0)"></path><path d="M26.21,131.55l-10.85,3.7L12.89,128l1.25-.43,2,5.89,3.31-1.13-1.77-5.17,1.29-.44,1.76,5.17,3.75-1.27-2-5.9,1.26-.43Z" transform="translate(0 0)"></path><path d="M20.67,114.4a4.65,4.65,0,0,1,1.74,3A4.71,4.71,0,0,1,22,120.8a3.78,3.78,0,0,1-2.46,1.73l-.28-1.48a2.63,2.63,0,0,0,1.62-1.14,3.27,3.27,0,0,0,.28-2.29,3,3,0,0,0-1.06-2,1.68,1.68,0,0,0-1.42-.31c-.88.16-1.5.86-1.45,2.23,0,.64.05,1.21.08,1.83.07,1.73-.61,3.23-2.4,3.58a3.16,3.16,0,0,1-2.42-.56,4.25,4.25,0,0,1-1.68-2.73,4.32,4.32,0,0,1,.52-3.13,3.42,3.42,0,0,1,2.2-1.55l.28,1.48a2.39,2.39,0,0,0-1.3.83,3,3,0,0,0,.77,4,1.87,1.87,0,0,0,1.31.23,1.71,1.71,0,0,0,1.26-2c0-.65-.05-1.3-.08-1.93-.09-1.93.81-3.4,2.59-3.75A3,3,0,0,1,20.67,114.4Z" transform="translate(0 0)"></path><path d="M10.74,107.28l10.12-.67.1,1.46-10.12.67.22,3.41-1.34.09L9.17,104l1.34-.09Z" transform="translate(0 0)"></path><path d="M21,94.8l-2.76.81-.23,5,2.67,1-.07,1.46L9.34,98.51l.08-1.68,11.66-3.52Zm-10.19,3,5.86,2.3L16.86,96Z" transform="translate(0 0)"></path><path d="M22.74,83.75,17.64,85l-.59,3.12,4.7.89-.27,1.41L10.2,88.27,11,83.85a4,4,0,0,1,1.55-2.68A3.25,3.25,0,0,1,15,80.72,3.08,3.08,0,0,1,17.11,82a3.25,3.25,0,0,1,.54,1.5L23,82.19Zm-10.4.35-.57,3,4,.75.57-3c.26-1.34-.1-2.39-1.54-2.67S12.59,82.76,12.34,84.1Z" transform="translate(0 0)"></path><path d="M23.4,65.27a3.88,3.88,0,0,1-.2,3l-1.09,2.61,4.1,1.72-.55,1.33-10.6-4.43,1.64-3.93a3.82,3.82,0,0,1,2.08-2.29,3.5,3.5,0,0,1,2.59.13A3.55,3.55,0,0,1,23.4,65.27Zm-5.5.81-1.07,2.57,4.06,1.7L22,67.76a2,2,0,0,0-1.18-3A2,2,0,0,0,17.9,66.08Z" transform="translate(0 0)"></path><path d="M30.24,63.75,20.29,58,21,56.77l8.78,5.06,2.76-4.78,1.16.67Z" transform="translate(0 0)"></path><path d="M39.63,49.8l-2.73-.91-3,4,1.6,2.39-.89,1.16L27.93,46.17l1-1.33,11.59,3.78ZM29.56,46.41l3.5,5.24,2.48-3.22Z" transform="translate(0 0)"></path><path d="M37.42,37.35l7.21,7.11-1,1L36.4,38.39,34,40.82l-1-1L38.86,34l1,.94Z" transform="translate(0 0)"></path><path d="M49.37,40.09,42,31.27l1.13-.95,7.36,8.82Z" transform="translate(0 0)"></path><path d="M60,32.39l-9.77-4.65,5,7.73-1.16.77-6.28-9.62,1.36-.89,9.78,4.68-5.06-7.76L55,21.89l6.27,9.62Z" transform="translate(0 0)"></path><path d="M69,28c-2.35,1.05-4.47.29-5.63-2.33l-3-6.64,1.32-.59,3,6.67c.74,1.67,1.93,2.47,3.75,1.66s2-2.23,1.27-3.9l-3-6.68,1.31-.58,3,6.64C72.19,24.83,71.34,26.91,69,28Z" transform="translate(0 0)"></path><path d="M85.56,22.31,83.15,13l-1.07,10.1-1.1.28-5.84-8.4,2.44,9.45-1.34.34L73.38,13.61l2-.51,5.69,8.17,1-9.9,2-.51L86.89,22Z" transform="translate(0 0)"></path><path d="M103.76,19.76a5.3,5.3,0,0,1-6.53.17A3.78,3.78,0,0,1,96,17.21l1.5,0A2.58,2.58,0,0,0,98.3,19a3.21,3.21,0,0,0,2.21.68,3,3,0,0,0,2.12-.71,1.7,1.7,0,0,0,.56-1.35c0-.89-.6-1.62-2-1.81l-1.82-.24c-1.72-.23-3.08-1.16-3.12-3a3.19,3.19,0,0,1,1-2.29,4.27,4.27,0,0,1,3-1.19,4.38,4.38,0,0,1,3,1.05,3.44,3.44,0,0,1,1.15,2.44l-1.51,0a2.4,2.4,0,0,0-.59-1.43,3,3,0,0,0-4.06.08,1.86,1.86,0,0,0-.44,1.26c0,1,.88,1.49,1.74,1.58.65.07,1.28.17,1.91.26,1.92.23,3.22,1.37,3.25,3.19A3,3,0,0,1,103.76,19.76Z" transform="translate(0 0)"></path><path d="M108,20.89l1.3-11.39,7.62.87-.15,1.32L110.63,11l-.4,3.47,5.43.62-.15,1.35-5.44-.62-.45,3.94,6.19.71-.15,1.31Z" transform="translate(0 0)"></path><path d="M125.73,24.19l-.23-2.87-4.83-1.25-1.57,2.41-1.41-.37L124.47,12l1.63.42,1.07,12.12Zm-.83-10.58-3.45,5.26,3.93,1Z" transform="translate(0 0)"></path><path d="M129.56,25.49l4.24-10.67,1.34.53-3.75,9.42,5.13,2L136,28.06Z" transform="translate(0 0)"></path><path d="M147.81,33.6a4.51,4.51,0,0,1-5.26-3.25c-.42-1.69.27-3.24,1.23-4.79s2-2.87,3.74-3.25a4.48,4.48,0,0,1,5.25,3.24c.43,1.69-.26,3.24-1.22,4.8S149.51,33.22,147.81,33.6Zm3.58-7.72a2.86,2.86,0,0,0-1.32-1.82,2.91,2.91,0,0,0-2.23-.37c-1.31.33-2.16,1.63-2.79,2.65s-1.41,2.36-1.12,3.68a3,3,0,0,0,1.33,1.83,2.86,2.86,0,0,0,2.23.36c1.3-.33,2.16-1.62,2.79-2.64S151.68,27.2,151.39,25.88Z" transform="translate(0 0)"></path><path d="M158.73,30.32l-2.37,2.88,4.12,3.4-.86,1-4.13-3.39-3.21,3.9-1.11-.92,7.3-8.85,5.73,4.72-.85,1Z" transform="translate(0 0)"></path><path d="M171.93,43.15l-7.69,6.59-1-1.1L171,42l-2.23-2.59,1-.87,5.4,6.28-1,.88Z" transform="translate(0 0)"></path><path d="M172.11,60.76,175,56.35l-1.72-2.67-4,2.59-.78-1.22,9.65-6.2,2.43,3.78a3.87,3.87,0,0,1,.72,3,3.22,3.22,0,0,1-1.47,2,3.11,3.11,0,0,1-2.38.49,3.2,3.2,0,0,1-1.42-.72l-3,4.66Zm7.3-7.41-1.66-2.57L174.36,53,176,55.53c.73,1.14,1.72,1.66,2.94.87S180.14,54.49,179.41,53.35Z" transform="translate(0 0)"></path><path d="M177.43,71.55l2.09-2L177.46,65l-2.86.28L174,64l12.12-1.06.7,1.53-8.77,8.45Zm7.72-7.29-6.26.62,1.68,3.7Z" transform="translate(0 0)"></path><path d="M180.88,82.23l7.32-8-8.87,2.54L179,75.48l11-3.16.45,1.56-7.35,8,8.9-2.55.38,1.34-11,3.16Z" transform="translate(0 0)"></path><path d="M184,95a5.32,5.32,0,0,1-.86-6.48A3.8,3.8,0,0,1,185.68,87l.19,1.49a2.56,2.56,0,0,0-1.7,1,3.26,3.26,0,0,0-.44,2.27,3,3,0,0,0,.93,2,1.67,1.67,0,0,0,1.4.41c.89-.11,1.56-.76,1.6-2.14,0-.64,0-1.21.05-1.83,0-1.74.82-3.19,2.64-3.42a3.26,3.26,0,0,1,2.38.72,4.59,4.59,0,0,1,.77,5.94,3.44,3.44,0,0,1-2.31,1.4L191,93.38a2.48,2.48,0,0,0,1.36-.74,3,3,0,0,0-.5-4,1.82,1.82,0,0,0-1.29-.31,1.72,1.72,0,0,0-1.4,1.9c0,.66,0,1.3,0,1.93,0,1.94-1,3.35-2.84,3.57A3,3,0,0,1,184,95Z" transform="translate(0 0)"></path><path d="M188.58,107.43a3.81,3.81,0,0,1-.91-2.83l.06-2.83-4.45-.08,0-1.44,11.46.21-.08,4.26a3.74,3.74,0,0,1-1.09,2.89,3.89,3.89,0,0,1-5-.18Zm4.8-2.77.06-2.78-4.4-.08-.06,2.79c0,1.54.67,2.33,2.21,2.36S193.36,106.09,193.38,104.66Z" transform="translate(0 0)"></path><path d="M181.78,117.88l2.84-.52.75-4.93-2.55-1.33.23-1.44,10.74,5.75-.26,1.67-12,2.27ZM192.24,116l-5.59-2.9-.61,4Z" transform="translate(0 0)"></path><path d="M178.75,129l5.2-.67.93-3-4.56-1.4.42-1.38,11,3.38-1.32,4.29a3.91,3.91,0,0,1-1.83,2.49,3.29,3.29,0,0,1-2.49.18,3.1,3.1,0,0,1-1.91-1.5,3.36,3.36,0,0,1-.37-1.56l-5.5.71Zm10.36.8.9-2.92-3.85-1.18-.9,2.92c-.4,1.3-.16,2.39,1.23,2.82S188.71,131.05,189.11,129.75Z" transform="translate(0 0)"></path><path d="M176.68,134.25l10.35,5-3.35,6.92-1.2-.58L185.2,140l-3.15-1.52-2.39,4.93-1.22-.59,2.38-4.93-3.57-1.74-2.72,5.62-1.2-.58Z" transform="translate(0 0)"></path><path d="M167.43,150.24l10.78.6-7.59-5.22.79-1.15,9.44,6.49-.92,1.33-10.8-.6,7.61,5.24-.79,1.14-9.43-6.49Z" transform="translate(0 0)"></path><path d="M160,160.48a4.48,4.48,0,0,1,4.2-4.52c1.73-.09,3.1.92,4.43,2.16s2.44,2.53,2.48,4.27a4.43,4.43,0,0,1-1.22,3.1,4.34,4.34,0,0,1-2.94,1.43,3.89,3.89,0,0,1-2.69-.95l1-1.09a2.43,2.43,0,0,0,1.6.63,2.78,2.78,0,0,0,2-.94,2.91,2.91,0,0,0,.78-2.12c-.07-1.35-1.18-2.43-2.06-3.24s-2-1.85-3.38-1.83a2.92,2.92,0,0,0-2.06.94,2.85,2.85,0,0,0-.78,2.12,2.67,2.67,0,0,0,.78,1.58l-1,1.09A4,4,0,0,1,160,160.48Z" transform="translate(0 0)"></path><path d="M156.59,168.34l-3-3.57,1.12-.93,3,3.57,7.32,2.74-1.24,1L158,169,159.2,175,158,176Z" transform="translate(0 0)"></path></svg>