<svg xmlns="http://www.w3.org/2000/svg" id="Layer_1" data-name="Layer 1" viewBox="0 0 160 39.332"><defs><style>.cls-1{fill:#241f21;}.cls-2{fill:#82a366;}</style></defs><title>Pioneer-RGB</title><path class="cls-1" d="M4.9,18.76c0,2.2.383,3.089,1.761,3.949H0c1.247-.668,1.5-1.433,1.5-4.3V4.874c0-2.867-.256-3.631-1.5-4.3H3.234c1.025,0,1.025,0,3.78-.032H8.069a10,10,0,0,1,4.454.828A5.782,5.782,0,0,1,15.95,6.434c0,3.471-3.364,6.306-7.463,6.306a5.526,5.526,0,0,1-2.435-.446,7.41,7.41,0,0,0,4.356-1.623A4.59,4.59,0,0,0,12.17,7.04c0-2.58-1.857-4.173-4.9-4.173A8.72,8.72,0,0,0,4.9,3.154Z"></path><path class="cls-1" d="M23.732,4.873c0-2.867-.256-3.631-1.506-4.3h6.406c-1.248.669-1.505,1.433-1.505,4.3V18.41c0,2.865.257,3.631,1.505,4.3H22.226c1.25-.668,1.506-1.434,1.506-4.3Z"></path><path class="cls-1" d="M56.721,3.312A11.7,11.7,0,0,1,60.148,11.5c0,6.562-5.509,11.752-12.492,11.752-6.886,0-12.329-5.064-12.329-11.5C35.327,5.064,40.834,0,48.105,0a12.716,12.716,0,0,1,8.616,3.312M41.475,4.9a9.317,9.317,0,0,0-2.337,6.308,10.839,10.839,0,0,0,2.721,7.134,7.565,7.565,0,0,0,5.926,2.517c5.06,0,8.52-3.6,8.52-8.824A10.514,10.514,0,0,0,54,5.352a7.834,7.834,0,0,0-6.374-2.931A8.915,8.915,0,0,0,41.475,4.9"></path><path class="cls-1" d="M70.481,18.76c0,2.2.385,3.057,1.762,3.949H66.221c1.44-.924,1.793-1.72,1.793-3.949V4.523c0-2.2-.384-3.058-1.761-3.949h4.933a4.615,4.615,0,0,0,.8,1.241L84.511,17.677V4.523c0-2.229-.386-3.026-1.8-3.949h6.053c-1.441.923-1.794,1.72-1.794,3.949V23.792a9.1,9.1,0,0,1-4.644-3.535L70.481,5.319Z"></path><path class="cls-1" d="M100.652,19.875a23.273,23.273,0,0,0,4.162.35,9.91,9.91,0,0,0,6.6-1.912l-1.568,4.4H95.751c1.249-.669,1.506-1.435,1.506-4.332V4.873c0-2.867-.289-3.662-1.506-4.3h11.243a3.04,3.04,0,0,0,1.281-.19V4.3c-1.089-1.051-1.955-1.338-4.132-1.338a19.9,19.9,0,0,0-3.491.224V9.46h4.516a2.254,2.254,0,0,0,1.152-.224V12.8c-.542-.7-1.184-.923-2.658-.923h-3.01Z"></path><path class="cls-1" d="M122.976,19.875a23.273,23.273,0,0,0,4.162.35,9.911,9.911,0,0,0,6.6-1.912l-1.57,4.4H118.075c1.249-.669,1.506-1.435,1.506-4.332V4.873c0-2.867-.289-3.662-1.506-4.3h11.243a3.038,3.038,0,0,0,1.28-.19V4.3c-1.088-1.051-1.954-1.338-4.131-1.338a19.9,19.9,0,0,0-3.491.224V9.46h4.516a2.256,2.256,0,0,0,1.152-.224V12.8c-.544-.7-1.184-.923-2.658-.923h-3.01Z"></path><path class="cls-1" d="M144.915,18.409c0,2.867.256,3.631,1.5,4.3h-6.406c1.249-.668,1.506-1.432,1.506-4.3V4.873c0-2.866-.257-3.631-1.506-4.3h4.9c.288,0,.833,0,1.57-.032.575-.032,1.057-.032,1.44-.032a8.1,8.1,0,0,1,5,1.307,5.5,5.5,0,0,1,2.243,4.3c0,2.58-2.274,4.967-5.477,5.763,5.06,6.753,7.623,9.428,10.313,10.829-2.081.161-2.435.193-3.107.193-1.921,0-2.947-.638-5.221-3.346a61.336,61.336,0,0,1-5.924-8.376c3.811-.636,5.636-2.229,5.636-4.81,0-2.2-1.665-3.725-4.1-3.725a11.751,11.751,0,0,0-2.37.255Z"></path><path class="cls-2" d="M143.522,35.252c-.865-.379-1.143-.635-1.143-1.049,0-.387.263-.8,1-.8a2.593,2.593,0,0,1,1.327.469l.033.024.381-1.045.008-.023-.019-.014a3.206,3.206,0,0,0-1.7-.49,2.015,2.015,0,0,0-2.237,1.907c0,.866.5,1.462,1.61,1.931,1.058.448,1.243.736,1.243,1.178,0,.409-.258.847-.982.847a3.064,3.064,0,0,1-1.729-.616l-.034-.024-.408,1.063-.01.023.022.015a3.986,3.986,0,0,0,2.122.664,2.31,2.31,0,0,0,1.646-.606,1.962,1.962,0,0,0,.6-1.429c0-.939-.453-1.469-1.729-2.024m-9.7,3.949h4.151V38.1h-2.944V36.3h2.661V35.232h-2.661V33.539h2.944V32.432h-4.151Zm-3.428-1.55a3.79,3.79,0,0,1-1.814.526,2.36,2.36,0,0,1-.027-4.72,3.729,3.729,0,0,1,1.768.508l.031.018.406-1,.012-.026-.024-.014a4.223,4.223,0,0,0-2.176-.617,3.5,3.5,0,1,0,0,6.988,4.188,4.188,0,0,0,2.2-.637l.022-.013-.37-1.029ZM119.228,35.79a5.221,5.221,0,0,1-.627-.033V33.524a4.241,4.241,0,0,1,.737-.05c.838,0,1.358.427,1.358,1.113,0,.775-.52,1.2-1.468,1.2m2.739-1.259c0-1.342-1.037-2.144-2.775-2.144a14.2,14.2,0,0,0-1.769.11l-.029,0v6.7H118.6V36.779c.21.008.426.016.636.016.122,0,.228,0,.339-.007l1.454,2.4.01.015h1.4l-1.767-2.716a2.09,2.09,0,0,0,1.292-1.954m-9.292,1.986c0,1.088-.535,1.688-1.5,1.688-.986,0-1.506-.584-1.506-1.688V32.432h-1.207V36.6a2.461,2.461,0,0,0,2.694,2.712,2.5,2.5,0,0,0,2.73-2.712V32.432h-1.207Zm-10.836,1.715A2.21,2.21,0,0,1,99.7,35.821a2.147,2.147,0,1,1,4.262,0,2.206,2.206,0,0,1-2.126,2.411m.027-5.909a3.4,3.4,0,0,0-3.453,3.5,3.328,3.328,0,0,0,3.389,3.49,3.4,3.4,0,0,0,3.453-3.49,3.333,3.333,0,0,0-3.389-3.5m-8.028,2.929c-.866-.379-1.144-.635-1.144-1.049,0-.387.263-.8,1-.8a2.6,2.6,0,0,1,1.326.469l.034.024.38-1.045.009-.023-.021-.014a3.2,3.2,0,0,0-1.7-.49,2.014,2.014,0,0,0-2.235,1.907c0,.866.495,1.462,1.609,1.931,1.057.448,1.244.736,1.244,1.178,0,.409-.26.847-.984.847a3.063,3.063,0,0,1-1.728-.616l-.034-.024-.408,1.063-.01.023.021.015a3.989,3.989,0,0,0,2.122.664,2.319,2.319,0,0,0,1.648-.606,1.961,1.961,0,0,0,.6-1.429c0-.939-.454-1.469-1.729-2.024m-9.7,3.949h4.153V38.1H85.343V36.3h2.662V35.232H85.343V33.539h2.946V32.432H84.136ZM78.03,35.79a5.245,5.245,0,0,1-.627-.033V33.524a4.254,4.254,0,0,1,.737-.05c.838,0,1.36.427,1.36,1.113,0,.775-.522,1.2-1.47,1.2m2.74-1.259c0-1.342-1.037-2.144-2.776-2.144a14.21,14.21,0,0,0-1.769.11l-.028,0v6.7H77.4V36.779c.211.008.427.016.637.016.121,0,.228,0,.34-.007l1.453,2.4.01.015h1.4l-1.768-2.716a2.09,2.09,0,0,0,1.292-1.954m-14.439-2.1H65.124V39.2h4.152V38.1H66.331ZM58.173,36.7l.9-2.128.9,2.128ZM59.2,32.342h-.2l-3.1,6.815-.019.044H57.12l.651-1.537h2.61l.641,1.517.009.02h1.277l-3.1-6.84ZM50.181,35.79a5.245,5.245,0,0,1-.627-.033V33.524a4.248,4.248,0,0,1,.737-.05c.838,0,1.359.427,1.359,1.113,0,.775-.521,1.2-1.469,1.2m2.74-1.259c0-1.342-1.038-2.144-2.776-2.144a14.21,14.21,0,0,0-1.769.11l-.028,0v6.7h1.206V36.779c.21.008.427.016.637.016.121,0,.227,0,.34-.007l1.453,2.4.008.015h1.4l-1.767-2.716a2.09,2.09,0,0,0,1.292-1.954m-9.294,1.986c0,1.088-.534,1.688-1.5,1.688s-1.5-.584-1.5-1.688V32.432H39.412V36.6a2.46,2.46,0,0,0,2.694,2.712A2.5,2.5,0,0,0,44.835,36.6V32.432H43.627Zm-12.6-2.978h2.13V39.2h1.207V33.539h2.123V32.432h-5.46ZM25.4,36.7l.9-2.128.9,2.128Zm1.023-4.353h-.2l-3.1,6.815L23.1,39.2H24.35L25,37.664H27.61l.64,1.517.009.02h1.277l-3.1-6.84ZM19.072,36.62l-4.089-4.3-.012-.014-.225.046V39.2h1.207V34.949L20.1,39.32l.012.012.169-.037V32.432H19.072Z"></path></svg>