<svg xmlns="http://www.w3.org/2000/svg" viewBox="0 0 311.81 127.56"><path fill="none" d="M0 0h311.46v127.01H0z"></path><path fill="#1d1d1b" d="M60.03 12.89h.88v61.17h-.88V12.89z"></path><path d="M46.1 41.35a7.77 7.77 0 01-.1 7c-1.19 2.61-5.31 4.62-5.79 4.8A9.64 9.64 0 0148.5 60a11.67 11.67 0 01-2.35 11c-2.19 2.3-4.82 3.4-9.53 3.31-3.16-.06-4.89-.32-8-.29-1.35 0-2.27.1-2.27.1L26.22 73c.91-.21 2.23.1 3.08-1.22.35-.54.6-4.25.67-7 .09-3.47.13-8.9.13-8.9s0-6-.13-9.91c0-.62 0-1-.06-1.58-.09-1.77-.33-4.54-.33-4.54-.13-.7-.08-1.28-1.1-1.76a6.41 6.41 0 00-2.86-.44v-.93a60.85 60.85 0 009.45.06c4.82-.32 9.2.37 11 4.52zm-4.18.08a7.68 7.68 0 01.72 7.57 6.77 6.77 0 01-6.11 3.7 4.87 4.87 0 01-1.73-.32l-.33 1.87a6.72 6.72 0 012.36-.3c3.31 0 5.14 1.87 6.84 4.6a10.8 10.8 0 01-.28 10.91c-2 2.65-4.71 3.41-8 2.84a6.67 6.67 0 01-2-.61s-.15-5.8-.2-9.5c-.08-6.06 0-9.48 0-15.54 0-3.07.11-7.89.11-7.89a9.48 9.48 0 016.69.89 6.33 6.33 0 011.88 1.8z" fill="#1d1d1b" fill-rule="evenodd"></path><path d="M31.67 14.13a1.13 1.13 0 111.13 1.12 1.14 1.14 0 01-1.13-1.12zM29.16 14.32a1.12 1.12 0 111.12 1.12 1.12 1.12 0 01-1.12-1.12zM28.07 18.58a1.12 1.12 0 111.12 1.12 1.12 1.12 0 01-1.12-1.12zM27.51 16.18a1.13 1.13 0 111.13 1.12 1.13 1.13 0 01-1.13-1.12zM25.18 15.13a1.12 1.12 0 111.12 1.12 1.12 1.12 0 01-1.12-1.12zM22.8 16.08a1.12 1.12 0 111.12 1.12 1.13 1.13 0 01-1.12-1.12zM21.19 18.11a1.12 1.12 0 111.12 1.12 1.13 1.13 0 01-1.12-1.12zM21.39 20.67a1.13 1.13 0 111.12 1.12 1.13 1.13 0 01-1.12-1.12zM27.4 31c0-.76 4.21-1.38 9.4-1.38s9.41.62 9.41 1.38-4.21 1.36-9.41 1.36-9.4-.61-9.4-1.37zM36.78 14.68A1.92 1.92 0 0134.85 13a4.2 4.2 0 011.93-.35 4.22 4.22 0 011.94.35 1.91 1.91 0 01-1.94 1.66zM39.59 14.09a1.12 1.12 0 111.12 1.12 1.12 1.12 0 01-1.12-1.12zM42.09 14.26a1.12 1.12 0 111.12 1.12 1.12 1.12 0 01-1.12-1.12zM43.75 16.1a1.12 1.12 0 111.12 1.12 1.12 1.12 0 01-1.12-1.12zM46.07 15a1.12 1.12 0 111.12 1.12A1.12 1.12 0 0146.07 15zM43.2 18.5a1.12 1.12 0 111.12 1.12 1.12 1.12 0 01-1.12-1.12zM48.47 16a1.13 1.13 0 012.25 0 1.13 1.13 0 11-2.25 0zM50.12 18a1.12 1.12 0 111.12 1.12A1.12 1.12 0 0150.12 18zM49.93 20.53a1.12 1.12 0 111.12 1.12 1.12 1.12 0 01-1.12-1.12z" fill="#1d1d1b"></path><path d="M38.71 12.31a2 2 0 00-1.11-1.38l-.53-.93.09-.11.88.45V8.89l-.85.46-.12-.12.53-.87H36l.52.86-.12.13-.85-.46v1.43l.88-.46.1.12-.53.94a2 2 0 00-1.11 1.39S35 12 36.27 12v-1a1.79 1.79 0 01.51-.07 1.75 1.75 0 01.51.07v1c1.31 0 1.42.35 1.42.35zM36.78 18.92a3.2 3.2 0 00-1.3.18 6.91 6.91 0 00-1.42-4.53c-.05-.37.52-.58.52-.58A2.53 2.53 0 0039 14s.57.21.52.58a6.91 6.91 0 00-1.42 4.53 3.16 3.16 0 00-1.3-.18z" fill="#1d1d1b" fill-rule="evenodd"></path><path d="M36.78 19.32a1.58 1.58 0 011.24.35c0 .56-.26.64-.45.84a.63.63 0 00.29 1 .77.77 0 00.68-.36c.11-.16.14-.36.34-.39s.38.32.45.6-.13 1.69-.71 1.58c-.39-.08-.22-.55-.71-.73a.84.84 0 00-.71 0c-.37.16-.22 1 0 1.54a1.28 1.28 0 00.62.73c1.07.47 1.78-1.73 1.89-2.08a.43.43 0 01-.17-.54.44.44 0 01.83 0 .4.4 0 01-.08.45.36.36 0 01-.28.15c-.08.48-.24 2 .58 2.26.34.12.94-.32 1.25-.8s.67-1.37.17-1.5a.57.57 0 00-.61.1c-.36.31-.45.65-.78.53s-.11-.62 0-1 .28-1.12.65-1.13.26.65.77.79a.52.52 0 00.52-.22.75.75 0 00.14-.59c0-.3-.26-.43-.25-.74 0-.85 2-.53 2.16.29.1.42-1.15.71-1.05 1.4 0 .24.35.19.6.11.44-.13.43-.47.81-.53.83-.11-.39 2.53-.85 2-.17-.2-.06-.46-.26-.62a.7.7 0 00-.24-.13c-.63-.21-1.08.69-1 1.34 0 .41.1.81.49.91.55.14 1.55-.61 2.21-1.8a.47.47 0 010-.52.45.45 0 01.42-.21.4.4 0 01.31.16.42.42 0 010 .54.42.42 0 01-.41.18c-.25.55-.95 2-.12 2.23.46.15 1.33-.52 1.46-.64.42-.38 1.17-1 .77-1.23s-1.07.62-1.46.2c-.25-.25.07-.88.37-1.34.18-.27.27-.54.59-.6.52-.1.32.92.83 1.07 1 .29.28-1.49 1.19-1.58.4 0 .68 0 .85.34a1.15 1.15 0 010 .6 23.23 23.23 0 00-4 4.95c-.33-.92-4.16-1.6-9.36-1.6s-9.08.66-9.4 1.58a19.58 19.58 0 00-4-4.93 1.15 1.15 0 010-.6c.17-.32.45-.38.85-.34.91.09.14 1.87 1.19 1.58.51-.15.31-1.17.83-1.07.32.06.41.33.59.6.3.46.62 1.09.38 1.34-.4.42-.92-.55-1.47-.2s.35.85.77 1.23c.13.12 1 .79 1.46.64.83-.26.13-1.68-.12-2.23a.42.42 0 01-.41-.18.44.44 0 010-.54.41.41 0 01.31-.16.44.44 0 01.42.21.45.45 0 010 .52c.66 1.19 1.66 1.94 2.21 1.8.39-.1.46-.5.49-.91.05-.65-.4-1.55-1-1.34a.75.75 0 00-.25.13c-.2.16-.09.42-.26.62-.46.55-1.68-2.09-.85-2 .38.06.37.4.82.53.24.08.56.13.59-.11.1-.69-1.15-1-1.05-1.4.21-.82 2.12-1.14 2.16-.29 0 .31-.25.44-.25.74a.75.75 0 00.14.59.52.52 0 00.51.22c.52-.14.35-.81.78-.79s.55.63.65 1.13.18.93 0 1-.42-.22-.78-.53a.55.55 0 00-.6-.1c-.51.13-.15 1 .16 1.5s.91.92 1.25.8c.83-.29.66-1.78.58-2.26a.36.36 0 01-.28-.15.4.4 0 01-.08-.45.44.44 0 01.83 0 .43.43 0 01-.17.54c.11.35.82 2.55 1.89 2.08a1.28 1.28 0 00.62-.73c.26-.54.41-1.38 0-1.54a.84.84 0 00-.71 0c-.49.18-.32.65-.71.73-.58.11-.79-1.27-.71-1.58s.16-.66.45-.6.23.23.34.39a.77.77 0 00.68.36.63.63 0 00.29-1c-.19-.2-.45-.28-.45-.84a1.58 1.58 0 011.24-.35z" fill="#1d1d1b"></path><path d="M36.78 26.43l-1.88 1.11 1.88 1.12 1.89-1.13-1.89-1.1zm6.45 2.3l-2.92-.35v-1.45l2.92.32v1.48zm1.22-.47l1.14-.26.76 1.18-.71.36-1.19-1.28zm-14.12.47l2.92-.35v-1.45l-2.92.32v1.48zm-1.22-.47L28 28l-.77 1.18.71.36 1.19-1.28zm7.67-2c5.2 0 9.43.52 9.26 1.68 0 .32.3.69.79 1.34-.23.23-.89.24-.82.87-.71-.73-5.57-1.15-9.23-1.15s-8.52.44-9.23 1.16c.08-.63-.59-.64-.82-.87.49-.65.79-1 .79-1.34-.16-1.16 4.06-1.68 9.26-1.68z" fill="#1d1d1b" fill-rule="evenodd"></path><path fill="#1d1d1b" d="M12.91 12.89h.88v61.17h-.88V12.89zM80 50.07l-5.8-6.15v6.15h-1.6V38h1.6v5.65L79.67 38h2.06L76 43.57l6.23 6.5zM85.43 39.9a1 1 0 111-1 1 1 0 01-1 1zm-.72 10.17v-7.86h1.5v7.86zM95.1 50.07v-5.16a1.51 1.51 0 00-1.71-1.64 2.86 2.86 0 00-1.87.63v6.17H90v-7.86h1.49V43a4.49 4.49 0 012.57-1 2.34 2.34 0 012.51 2.47c.07 1.21 0 5.56 0 5.56zM102.71 55.22c-2.27 0-3.56-1-3.56-2.32 0-1.46 1.8-2.31 1.8-2.31s-1.25-.36-1.25-1.36c0-.71.92-1.28 1.48-1.53a2.8 2.8 0 01-1.53-2.59 3.12 3.12 0 013.29-3.11 4 4 0 011.71.36h2.51v.92h-1.43a3.16 3.16 0 01.54 1.75 3.09 3.09 0 01-3.33 3.06 6 6 0 01-.84-.09c-.41.14-1 .43-1 .83s.88.63 2.7.82c2.43.27 3.38.87 3.38 2.27.01 1.81-1.88 3.3-4.47 3.3zm1-4.16l-1.71-.23s-1.51.61-1.51 1.85c0 .78 1 1.48 2.64 1.48 1.53 0 2.65-.81 2.65-1.78.01-.54-.06-1.05-2.04-1.32zm-.78-8.06a1.78 1.78 0 00-1.78 2c0 1.29.62 2.17 1.81 2.17a1.73 1.73 0 001.82-2c0-1.34-.63-2.17-1.85-2.17zM117.74 50.09h-3.44V38h3.19c2.3 0 4 .76 4 2.86a3.11 3.11 0 01-1.76 2.7s2.66.52 2.66 2.94c.01 2.62-2.17 3.59-4.65 3.59zM117.29 39h-1.39v4.07a11 11 0 001.3.06c1.93 0 2.57-1 2.57-2.18s-.91-1.95-2.48-1.95zm2.34 5.74a4.51 4.51 0 00-2.48-.5h-1.25v4.56a10.42 10.42 0 001.88.11c1.54 0 2.86-.63 2.86-2.33a2.12 2.12 0 00-1.01-1.8zM130.3 50.2c-.81 0-1.13-.9-1.13-.9a3.17 3.17 0 01-2 .93 2.08 2.08 0 01-2.22-2.08 2.39 2.39 0 012-2.29 11.13 11.13 0 012.25-.41v-.58a1.75 1.75 0 00-.25-1.21 1.55 1.55 0 00-1.24-.43 3.51 3.51 0 00-2.29.92l-.27-1.1a6.13 6.13 0 013-1c1.64 0 2.43.87 2.43 1.93 0 1.57-.07 3.08-.07 3.85 0 .94.16 1.3.7 1.3a1.85 1.85 0 00.79-.18v.79a4.36 4.36 0 01-1.7.46zm-2.55-3.67c-.76.19-1.39.63-1.39 1.31a1.3 1.3 0 001.39 1.31 1.94 1.94 0 001.33-.66v-2.2a7.12 7.12 0 00-1.33.24zM139.29 50.07v-.77a4.7 4.7 0 01-2.6.86 2.25 2.25 0 01-2.44-2.43c-.08-1.2 0-5.52 0-5.52h1.49v5.16c.07 1.08.5 1.62 1.66 1.62a2.83 2.83 0 001.89-.68v-6.1h1.49v7.86zM149.48 50.07v-.72a3.49 3.49 0 01-2.36.85c-2 0-3.37-1.57-3.37-3.85a4 4 0 014.11-4.35 4.47 4.47 0 011.62.27v-5H151v12.8zm0-6.51a2.85 2.85 0 00-1.61-.45c-1.26 0-2.57.66-2.57 3 0 1.89.88 3 2.57 3a2.55 2.55 0 001.61-.61zM158 50.23a3.88 3.88 0 01-4-4.17 3.92 3.92 0 014.1-4 3.81 3.81 0 014 4.13 3.87 3.87 0 01-4.1 4.04zm0-7.09a2.51 2.51 0 00-2.55 2.86c0 1.69.83 3.19 2.7 3.19 1.62 0 2.34-1.3 2.34-2.85 0-1.86-.97-3.2-2.57-3.2zM170 50.07v-.77a4.66 4.66 0 01-2.59.86 2.26 2.26 0 01-2.41-2.43c-.07-1.2 0-5.52 0-5.52h1.49v5.16c.07 1.08.5 1.62 1.65 1.62a2.8 2.8 0 001.89-.68v-6.1h1.5v7.86zM176 39.9a1 1 0 111-1 1 1 0 01-1 1zm-.73 10.17v-7.86h1.5v7.86zM185.65 50.07v-5.16c-.08-1.08-.56-1.64-1.71-1.64a2.87 2.87 0 00-1.88.63v6.17h-1.49v-7.86H182V43a4.52 4.52 0 012.58-1 2.33 2.33 0 012.5 2.47c.07 1.21 0 5.56 0 5.56zM74.2 68.67v5.4h-1.6V62h6.91v1.37H74.2v4h5.31v1.35zM85.77 74.23a3.88 3.88 0 01-4-4.17 3.93 3.93 0 014.11-4 3.81 3.81 0 014 4.13 3.87 3.87 0 01-4.11 4.04zm0-7.09a2.51 2.51 0 00-2.5 2.86c0 1.69.83 3.19 2.7 3.19 1.62 0 2.34-1.3 2.34-2.85 0-1.87-.97-3.2-2.57-3.2zM97.81 74.07v-.77a4.66 4.66 0 01-2.59.86 2.26 2.26 0 01-2.45-2.43c-.07-1.2 0-5.52 0-5.52h1.49v5.16c.07 1.08.5 1.62 1.65 1.62a2.8 2.8 0 001.89-.68v-6.1h1.5v7.86zM108.2 74.07v-5.16a1.51 1.51 0 00-1.71-1.64 2.86 2.86 0 00-1.87.63v6.17h-1.49v-7.86h1.49V67a4.52 4.52 0 012.58-1 2.33 2.33 0 012.5 2.47c.07 1.21 0 5.56 0 5.56zM118.34 74.07v-.72a3.49 3.49 0 01-2.36.85c-2 0-3.37-1.57-3.37-3.85a4 4 0 014.11-4.35 4.47 4.47 0 011.62.27v-5h1.49v12.8zm0-6.51a2.85 2.85 0 00-1.61-.45c-1.26 0-2.57.66-2.57 3 0 1.89.88 3 2.57 3a2.55 2.55 0 001.61-.61zM128.13 74.2c-.81 0-1.14-.9-1.14-.9a3.17 3.17 0 01-2 .93 2.08 2.08 0 01-2.21-2.08 2.38 2.38 0 012-2.29 11.13 11.13 0 012.25-.41v-.58a1.76 1.76 0 00-.26-1.21 1.55 1.55 0 00-1.24-.43 3.47 3.47 0 00-2.28.92l-.27-1.1a6.07 6.07 0 013-1c1.64 0 2.43.87 2.43 1.93 0 1.57-.07 3.08-.07 3.85 0 .94.16 1.3.7 1.3a1.85 1.85 0 00.79-.18v.79a4.35 4.35 0 01-1.7.46zm-2.56-3.67c-.76.19-1.39.63-1.39 1.31a1.3 1.3 0 001.39 1.31 1.92 1.92 0 001.33-.66v-2.2a7.12 7.12 0 00-1.33.24zM134 74.23a1.59 1.59 0 01-1.62-1 7.41 7.41 0 01-.19-2.3v-3.44H131v-1.1h1.24l.47-1.93h1v1.94H136v1h-2.32s0 1.49-.06 2.93a8.78 8.78 0 00.11 2 .75.75 0 00.81.58 2.71 2.71 0 001.59-.68l.18 1a3.85 3.85 0 01-2.31 1zM139.66 63.9a1 1 0 111-1 1 1 0 01-1 1zm-.72 10.17v-7.86h1.5v7.86zM147.38 74.23a3.88 3.88 0 01-4-4.17 3.93 3.93 0 014.11-4 3.81 3.81 0 014 4.13 3.87 3.87 0 01-4.11 4.04zm0-7.09a2.51 2.51 0 00-2.5 2.86c0 1.69.83 3.19 2.7 3.19 1.62 0 2.34-1.3 2.34-2.85 0-1.87-.92-3.2-2.57-3.2zM159.54 74.07v-5.16a1.51 1.51 0 00-1.71-1.64 2.83 2.83 0 00-1.87.63v6.17h-1.5v-7.86h1.5V67a4.49 4.49 0 012.57-1 2.33 2.33 0 012.5 2.47c.08 1.21 0 5.56 0 5.56zM20.66 94.75h-1l-.91-6.63-3 6.63h-1L13.91 86H15l.67 6.9 3-6.9h.91l.9 6.9 2.75-6.9h1.08zM26.39 94.85a2.28 2.28 0 01-2.46-2.55 3.08 3.08 0 013-3.35c1.14 0 2.42.42 2.42 2.52-.02 1.77-1.07 3.38-2.96 3.38zm.46-5.12c-.85 0-2 .7-2 2.65a1.52 1.52 0 001.54 1.72c.94 0 1.9-.86 1.9-2.67.05-1.21-.63-1.7-1.44-1.7zM34.33 90.28a1.15 1.15 0 00-.73-.36c-.68 0-1.44.86-1.92 2.54-.09.31-.39 2.29-.39 2.29h-.94c.1-.91.75-4.19.9-5.68h1c-.08.67-.31 1.66-.31 1.66.52-1.1 1.34-1.75 2-1.75a1 1 0 01.87.48zM39.34 94.79a1.28 1.28 0 01-.73-.21 8.65 8.65 0 01-1.19-1.09 9 9 0 00-1.19-1.17c-.12.56-.43 2.43-.43 2.43h-.94c.06-.43.41-2.22.76-4.14.39-2.14.91-5.09.91-5.09h.93l-1 5.17S37.58 89 39 89a1.06 1.06 0 011.08 1.18c0 1.63-2 2.25-2.46 2.27a10.82 10.82 0 00.8.84c.59.56.83.7 1.2.7a1.6 1.6 0 00.65-.21l.21.63a1.63 1.63 0 01-1.14.38zm-.76-5c-.61 0-1.69 1-2.22 2a4.46 4.46 0 00.62.06c1.13 0 2.1-.75 2.1-1.48 0-.37-.23-.54-.5-.54zM42.28 94.75h-.93l.92-5.68h.94zm.73-7.4a.54.54 0 01-.55-.58.75.75 0 01.73-.81c.37 0 .52.25.52.6a.73.73 0 01-.71.79zM48.21 94.75a3.15 3.15 0 01-.63 0c.27-2 .73-3.88.73-4.45 0-.3 0-.42-.32-.42-.91 0-2.18 1.43-2.44 2.37-.09.35-.46 2.55-.46 2.55h-.93c.1-.91.79-4.46 1-5.68h1c-.1.67-.32 1.64-.32 1.64S46.86 89 48.45 89c.62 0 .87.36.87.94s-.42 2.61-.65 4a2.71 2.71 0 001-.3l.3.62a3.13 3.13 0 01-1.76.49zM55.61 91.68a10.43 10.43 0 00-.36 2.52c0 .31.06 1 .06 1.28a2.67 2.67 0 01-.8 2.26 3.12 3.12 0 01-2.15.67 3.8 3.8 0 01-2.43-.85l.3-.85a3.8 3.8 0 002.26.88 1.86 1.86 0 001.56-.59 2.32 2.32 0 00.31-1.46v-1.32a1.89 1.89 0 01.15-1 3.61 3.61 0 01-2.66 1.62c-.66 0-.95-.58-.95-1.48a5.09 5.09 0 011.64-3.9 2.55 2.55 0 011.59-.46 2.11 2.11 0 011.25.35l.23-.35h.63s-.34 1.3-.63 2.68zm-1.62-2a1.55 1.55 0 00-1.13.53 5 5 0 00-1 3.08c0 .59.22.67.46.67a2.16 2.16 0 001.43-.8 4.09 4.09 0 001-1.55l.35-1.6a1.73 1.73 0 00-1.1-.32zM63.19 90H61.5l-.36 2.07a10.77 10.77 0 00-.14 1.36c0 .46.22.59.53.59a2.33 2.33 0 001.23-.6v.83a2.65 2.65 0 01-1.66.6 1 1 0 01-1.08-1 20.69 20.69 0 01.3-2.22c.13-.86.26-1.56.26-1.56h-.89l.13-.77h.87l.46-1.44h.73l-.25 1.45h1.69zM66.2 94.85a2.28 2.28 0 01-2.46-2.55 3.07 3.07 0 013-3.35c1.14 0 2.42.42 2.42 2.52-.02 1.77-1.08 3.38-2.96 3.38zm.45-5.12c-.84 0-2 .7-2 2.65a1.52 1.52 0 001.55 1.72c.94 0 1.9-.86 1.9-2.67.05-1.21-.63-1.7-1.45-1.7zM74.93 91.68a10.43 10.43 0 00-.36 2.52c0 .31.07 1 .07 1.28a2.68 2.68 0 01-.81 2.26 3.12 3.12 0 01-2.15.67 3.83 3.83 0 01-2.43-.85l.3-.85a3.8 3.8 0 002.26.88 1.86 1.86 0 001.56-.59 2.32 2.32 0 00.32-1.46c0-.6-.06-1-.06-1.32a1.89 1.89 0 01.15-1 3.6 3.6 0 01-2.65 1.62c-.67 0-.95-.58-.95-1.48a5.08 5.08 0 011.63-3.9 2.57 2.57 0 011.64-.46 2.11 2.11 0 011.25.35l.23-.35h.63s-.34 1.3-.63 2.68zm-1.62-2a1.55 1.55 0 00-1.13.53 5 5 0 00-1 3.08c0 .59.22.67.47.67a2.2 2.2 0 001.43-.8 4.17 4.17 0 001-1.55L74.4 90a1.73 1.73 0 00-1.09-.31zM79.07 92a10.08 10.08 0 01-1.74.43 2 2 0 000 .44c0 .74.3 1.16 1 1.16a3.5 3.5 0 002.2-1l.4.66a4.46 4.46 0 01-2.77 1.18c-1 0-1.79-.45-1.79-1.9 0-1.92 1-4 3.08-4 .86 0 1.5.42 1.5 1.21s-.68 1.38-1.88 1.82zm.18-2.3c-.69 0-1.49.59-1.82 2a6.24 6.24 0 001.26-.31c.68-.23 1.25-.49 1.25-1.13 0-.45-.35-.57-.69-.57zM85.38 90h-1.69l-.36 2.07a10.77 10.77 0 00-.16 1.36c0 .46.22.59.54.59a2.34 2.34 0 001.22-.6v.83a2.65 2.65 0 01-1.66.6 1 1 0 01-1.08-1 20.69 20.69 0 01.3-2.22c.13-.86.26-1.56.26-1.56h-.89l.13-.77h.87l.46-1.44h.73l-.25 1.45h1.7zM90 94.75a3.2 3.2 0 01-.64 0c.27-2 .73-3.88.73-4.45 0-.3 0-.42-.33-.42-.89 0-2.18 1.49-2.43 2.37-.09.34-.45 2.55-.45 2.55h-.94c0-.43.41-2.22.76-4.14.39-2.14.91-5.09.91-5.09h.93l-1 5.17S88.65 89 90.22 89c.63 0 .87.36.87.94s-.41 2.61-.65 4a2.71 2.71 0 001-.3l.3.62a3.08 3.08 0 01-1.74.49zM95.3 92a10.08 10.08 0 01-1.74.43 2 2 0 000 .44c0 .74.3 1.16 1 1.16a3.47 3.47 0 002.2-1l.4.66a4.42 4.42 0 01-2.76 1.18c-1 0-1.8-.45-1.8-1.9 0-1.92 1-4 3.08-4 .86 0 1.5.42 1.5 1.21S96.5 91.56 95.3 92zm.18-2.3c-.69 0-1.49.59-1.82 2a6.24 6.24 0 001.26-.31c.68-.23 1.25-.49 1.25-1.13 0-.45-.35-.57-.69-.57zM102 90.28a1.12 1.12 0 00-.73-.36c-.67 0-1.44.86-1.92 2.54-.09.31-.39 2.29-.39 2.29H98c.11-.91.76-4.19.9-5.68h1c-.08.67-.32 1.66-.32 1.66.52-1.1 1.34-1.75 2-1.75a1 1 0 01.87.48zM110.42 86.48a2.92 2.92 0 00-1.08-.21 1.64 1.64 0 00-1.42.64 4.53 4.53 0 00-.66 2v.34h1.61l-.13.74h-1.58v.2a34.68 34.68 0 01-1 5.68c-.62 1.84-1.71 2.51-3 2.51a2.51 2.51 0 01-.64-.07l.15-.83a2.81 2.81 0 00.54.05 2 2 0 001.79-1.31 26.69 26.69 0 001.14-5.93v-.27H105l.11-.76h1.15v-.3a4.52 4.52 0 011.08-2.79 2.66 2.66 0 012-.78 3.92 3.92 0 011.3.22zM111.54 94.85a2.28 2.28 0 01-2.46-2.55 3.08 3.08 0 013-3.35c1.15 0 2.42.42 2.42 2.52-.02 1.77-1.07 3.38-2.96 3.38zm.46-5.12c-.85 0-2 .7-2 2.65a1.52 1.52 0 001.54 1.72c.94 0 1.9-.86 1.9-2.67.05-1.21-.62-1.7-1.44-1.7zM119.48 90.28a1.15 1.15 0 00-.73-.36c-.67 0-1.44.86-1.92 2.54-.09.31-.39 2.29-.39 2.29h-.94c.1-.91.75-4.19.9-5.68h1c-.08.67-.31 1.66-.31 1.66.52-1.1 1.34-1.75 2-1.75a1 1 0 01.87.48zM126.43 94.79a2.33 2.33 0 01-.58-.05l.31-1.72a5.09 5.09 0 01-1.3 1.35 2.37 2.37 0 01-1.43.48c-.66 0-1-.58-1-1.48a5.09 5.09 0 011.64-3.9 2.55 2.55 0 011.64-.52 2.15 2.15 0 011.25.35l.2-.35h.63s-.31 1.34-.57 2.73c-.32 1.64-.38 2.28-.38 2.28a2.71 2.71 0 001-.3l.3.62a3.13 3.13 0 01-1.71.51zm-.81-5.1a1.56 1.56 0 00-1.14.53 5 5 0 00-1 3.08c0 .59.22.67.47.67.77 0 2.23-1.54 2.47-2.48l.33-1.47a1.73 1.73 0 00-1.13-.33zM133.71 94.85a3.6 3.6 0 01-2.09-.65l1.47-8.68h.91l-.87 4.86a3 3 0 012.31-1.44c.87 0 1.48.65 1.48 2 .08 2.14-.98 3.91-3.21 3.91zm1.5-5c-1 0-2 1.08-2.37 2.38l-.28 1.53a2.47 2.47 0 001.31.37c1.42 0 2.09-1.28 2.09-3.07.04-.84-.28-1.24-.75-1.24zM140.75 92a10.08 10.08 0 01-1.74.43 2 2 0 000 .44c0 .74.3 1.16 1 1.16a3.46 3.46 0 002.19-1l.41.66a4.46 4.46 0 01-2.77 1.18c-1 0-1.8-.45-1.8-1.9 0-1.92 1-4 3.08-4 .86 0 1.5.42 1.5 1.21s-.62 1.38-1.87 1.82zm.18-2.3c-.68 0-1.49.59-1.82 2a6.4 6.4 0 001.27-.31c.67-.23 1.24-.49 1.24-1.13 0-.45-.35-.57-.69-.57zM147.07 90h-1.69s-.19 1-.37 2.07a10.37 10.37 0 00-.15 1.36c0 .46.22.59.53.59a2.26 2.26 0 001.22-.6v.83a2.65 2.65 0 01-1.66.6 1 1 0 01-1.08-1 20.69 20.69 0 01.3-2.22c.13-.86.26-1.56.26-1.56h-.88l.13-.77h.87l.45-1.44h.73l-.25 1.45h1.69zM151.4 90h-1.69l-.36 2.07a10.77 10.77 0 00-.16 1.36c0 .46.22.59.54.59a2.3 2.3 0 001.22-.6v.83a2.65 2.65 0 01-1.66.6 1 1 0 01-1.08-1 20.69 20.69 0 01.3-2.22c.13-.86.26-1.56.26-1.56h-.89l.13-.77h.88l.45-1.44h.73l-.25 1.45h1.69zM154.71 92a10.08 10.08 0 01-1.74.43 2 2 0 000 .44c0 .74.3 1.16 1 1.16a3.5 3.5 0 002.2-1l.4.66a4.46 4.46 0 01-2.77 1.18c-1 0-1.79-.45-1.79-1.9 0-1.92 1-4 3.08-4 .86 0 1.49.42 1.49 1.21s-.68 1.38-1.87 1.82zm.18-2.3c-.69 0-1.49.59-1.82 2a6.42 6.42 0 001.26-.31c.68-.23 1.25-.49 1.25-1.13 0-.45-.35-.57-.69-.57zM161.43 90.28a1.15 1.15 0 00-.73-.36c-.67 0-1.44.86-1.92 2.54-.09.31-.39 2.29-.39 2.29h-.94c.11-.91.76-4.19.9-5.68h1a16 16 0 01-.31 1.66c.52-1.1 1.34-1.75 2-1.75a1 1 0 01.87.48zM168.1 90a2.73 2.73 0 00-1.28-.28c-.67 0-1 .26-1 .71s.31.67 1 1.13c.41.27 1.23.78 1.23 1.63 0 1.16-.83 1.7-2.12 1.7a3.2 3.2 0 01-1.69-.51l.13-.93a3.09 3.09 0 001.69.65c.75 0 1.06-.22 1.06-.68s-.34-.77-1-1.17-1.21-.9-1.21-1.64c0-1.12.89-1.65 2-1.65a3 3 0 011.31.24zM171.51 94.85a2.28 2.28 0 01-2.46-2.55A3.07 3.07 0 01172 89c1.14 0 2.41.42 2.41 2.52.03 1.72-1.02 3.33-2.9 3.33zm.45-5.12c-.84 0-2 .7-2 2.65a1.52 1.52 0 001.55 1.72c.93 0 1.9-.86 1.9-2.67.05-1.21-.63-1.7-1.41-1.7zM179.87 90.13a2.78 2.78 0 00-1.41-.39c-1.44 0-2 1.85-2 3.12 0 .71.3 1.16 1 1.16a3.46 3.46 0 002.19-1l.41.66a4.46 4.46 0 01-2.77 1.18c-1 0-1.8-.45-1.8-1.9 0-2 1-4 3.06-4a3.35 3.35 0 011.53.34zM181.87 94.75h-.93l.92-5.68h.94zm.73-7.4a.54.54 0 01-.55-.58.75.75 0 01.73-.81c.37 0 .52.25.52.6a.73.73 0 01-.7.79zM186.53 92a10.08 10.08 0 01-1.74.43 2 2 0 000 .44c0 .74.3 1.16 1 1.16A3.46 3.46 0 00188 93l.41.66a4.46 4.46 0 01-2.77 1.18c-1 0-1.8-.45-1.8-1.9 0-1.92 1-4 3.08-4 .86 0 1.5.42 1.5 1.21s-.69 1.41-1.89 1.85zm.19-2.3c-.69 0-1.5.59-1.82 2a6.42 6.42 0 001.26-.31c.67-.23 1.24-.49 1.24-1.13 0-.45-.35-.57-.68-.57zM192.85 90h-1.69s-.18 1-.37 2.07a10.37 10.37 0 00-.15 1.36c0 .46.22.59.53.59a2.26 2.26 0 001.22-.6v.83a2.7 2.7 0 01-1.67.6 1 1 0 01-1.08-1 20.69 20.69 0 01.3-2.22c.13-.86.26-1.56.26-1.56h-.88l.13-.77h.87l.45-1.44h.73l-.24 1.45H193zM197.24 94.58a17.85 17.85 0 01-2.36 2.9 2.5 2.5 0 01-1.89.91c-.63 0-.78-.12-.78-.12l.08-.75a2.88 2.88 0 00.72.06 1.9 1.9 0 001.4-.73 18.17 18.17 0 001.74-2.11s-.37-1.28-.9-2.85-.74-2.11-1.06-2.11a1.34 1.34 0 00-.68.24v-.71a2.29 2.29 0 011.24-.36c.58 0 .86.84 1.27 2.18.34 1.1.81 2.66.81 2.66a9.33 9.33 0 00.86-1.6 4.13 4.13 0 00.35-1.76 3.66 3.66 0 00-.28-1.21l.86-.3a2.29 2.29 0 01.38 1.3 8 8 0 01-1.76 4.36z"></path></svg>